# xmcd
#
# Track frame offsets:
#	150
#	14125
#	30965
#	51050
#	67713
#	80530
#	105813
#	126253
#	147548
#	169950
#
# Disc length: 2495 seconds
#
# Revision: 0
# Processed by: cddbd v1.4PL0 Copyright (c) Steve Scherf et al.
# Submitted via: audiograbber 1.81.02
#
DISCID=7d09bd0a
DTITLE=Borderline - Line Up
DYEAR=1993
DGENRE=Blues-Rock
TTITLE0=(O Yeah) She Drives Me Crazy
TTITLE1=Out On The Road
TTITLE2=Josephine
TTITLE3=My Sweet Little Angel
TTITLE4=Woman
TTITLE5=Macon, Georgia
TTITLE6=Bring Me Some Water
TTITLE7=Hold Me Now
TTITLE8=Love That Burns
TTITLE9=Fun Runner
EXTD=
EXTT0=
EXTT1=
EXTT2=
EXTT3=
EXTT4=
EXTT5=
EXTT6=
EXTT7=
EXTT8=
EXTT9=
PLAYORDER=
